<?xml version="1.0" encoding="UTF-8" standalone="no"?>
<!DOCTYPE svg PUBLIC "-//W3C//DTD SVG 1.1//EN" "http://www.w3.org/Graphics/SVG/1.1/DTD/svg11.dtd">
<svg width="100%" height="100%" viewBox="0 0 498 200" version="1.1" xmlns="http://www.w3.org/2000/svg" xmlns:xlink="http://www.w3.org/1999/xlink" xml:space="preserve" xmlns:serif="http://www.serif.com/" style="fill-rule:evenodd;clip-rule:evenodd;stroke-linejoin:round;stroke-miterlimit:2;">
    <g transform="matrix(1,0,0,1,-140.974,-50.2449)">
        <path d="M209.445,198.168C209.778,198.168 209.945,198.352 209.945,198.718C209.945,199.085 209.778,199.268 209.445,199.268L203.445,199.168C200.645,199.035 198.611,198.968 197.345,198.968C196.278,198.968 194.345,199.035 191.545,199.168L186.145,199.268C185.878,199.268 185.745,199.085 185.745,198.718C185.745,198.352 185.878,198.168 186.145,198.168C187.745,198.168 188.911,198.002 189.645,197.668C190.378,197.335 190.745,196.735 190.745,195.868C190.745,195.002 190.211,193.335 189.145,190.868L183.145,177.768L171.645,177.768L167.945,187.068C166.945,189.668 166.445,191.735 166.445,193.268C166.445,195.002 167.028,196.252 168.195,197.018C169.361,197.785 171.178,198.168 173.645,198.168C173.978,198.168 174.145,198.352 174.145,198.718C174.145,199.085 173.978,199.268 173.645,199.268L169.645,199.168C167.645,199.035 165.878,198.968 164.345,198.968C162.545,198.968 160.445,199.035 158.045,199.168L152.445,199.268C152.111,199.268 151.945,199.085 151.945,198.718C151.945,198.352 152.111,198.168 152.445,198.168C155.445,198.168 157.928,197.285 159.895,195.518C161.861,193.752 163.745,190.602 165.545,186.068L175.545,161.368C174.545,159.702 173.578,158.235 172.645,156.968C172.445,156.702 172.511,156.202 172.845,155.468C173.178,154.735 173.611,153.935 174.145,153.068C175.278,151.202 176.195,149.485 176.895,147.918C177.595,146.352 177.945,144.735 177.945,143.068C177.945,142.868 178.128,142.752 178.495,142.718C178.861,142.685 179.078,142.768 179.145,142.968C179.678,145.235 180.378,147.402 181.245,149.468C182.111,151.535 183.478,154.568 185.345,158.568C186.078,160.035 186.511,160.935 186.645,161.268L197.745,185.368C199.945,190.168 201.928,193.502 203.695,195.368C205.461,197.235 207.378,198.168 209.445,198.168ZM181.945,175.168L177.345,165.068L176.945,164.268L172.645,175.168L181.945,175.168Z" style="fill:rgb(28,20,54);"/>
        <path d="M251.345,159.568C251.678,159.568 252.028,159.718 252.395,160.018C252.761,160.318 252.945,160.602 252.945,160.868L252.945,206.068C252.945,212.468 251.161,217.585 247.595,221.418C244.028,225.252 238.678,227.168 231.545,227.168C227.345,227.168 223.778,226.485 220.845,225.118C217.911,223.752 216.445,221.768 216.445,219.168C216.445,217.768 216.911,216.635 217.845,215.768C218.778,214.902 220.045,214.468 221.645,214.468C223.311,214.468 224.611,214.902 225.545,215.768C226.478,216.635 227.478,217.902 228.545,219.568C229.678,221.435 230.761,222.818 231.795,223.718C232.828,224.618 234.311,225.068 236.245,225.068C238.578,225.068 240.395,223.918 241.695,221.618C242.995,219.318 243.645,214.935 243.645,208.468L243.645,192.368C239.045,197.635 234.045,200.268 228.645,200.268C225.045,200.268 222.195,199.118 220.095,196.818C217.995,194.518 216.945,191.502 216.945,187.768L216.945,173.068C216.945,170.868 216.711,169.235 216.245,168.168C215.778,167.102 215.011,166.568 213.945,166.568C213.145,166.568 212.278,166.802 211.345,167.268L211.245,167.268C210.978,167.268 210.795,167.085 210.695,166.718C210.595,166.352 210.611,166.135 210.745,166.068L224.245,159.668L224.645,159.568C224.978,159.568 225.345,159.718 225.745,160.018C226.145,160.318 226.345,160.602 226.345,160.868L226.345,182.968C226.345,186.568 226.995,189.235 228.295,190.968C229.595,192.702 231.645,193.568 234.445,193.568C235.978,193.568 237.578,193.252 239.245,192.618C240.911,191.985 242.378,191.135 243.645,190.068L243.645,173.068C243.645,168.735 242.611,166.568 240.545,166.568C239.811,166.568 238.978,166.802 238.045,167.268L237.945,167.268C237.678,167.268 237.478,167.085 237.345,166.718C237.211,166.352 237.245,166.135 237.445,166.068L250.845,159.668L251.345,159.568Z" style="fill:rgb(28,20,54);"/>
        <path d="M262.745,199.068C262.611,199.068 262.545,198.868 262.545,198.468C262.545,198.068 262.611,197.868 262.745,197.868C264.811,197.868 266.228,197.385 266.995,196.418C267.761,195.452 268.145,193.635 268.145,190.968L268.145,131.668C268.145,131.202 268.195,130.852 268.295,130.618C268.395,130.385 268.645,130.168 269.045,129.968L275.745,126.568C275.811,126.502 275.911,126.468 276.045,126.468C276.378,126.468 276.728,126.635 277.095,126.968C277.461,127.302 277.645,127.602 277.645,127.868L277.645,190.968C277.645,193.635 278.011,195.452 278.745,196.418C279.478,197.385 280.878,197.868 282.945,197.868C283.211,197.868 283.345,198.068 283.345,198.468C283.345,198.868 283.211,199.068 282.945,199.068C281.278,199.068 279.945,199.035 278.945,198.968L272.845,198.868L266.845,198.968C265.845,199.035 264.478,199.068 262.745,199.068Z" style="fill:rgb(28,20,54);"/>
        <path d="M333.945,192.568C334.145,192.568 334.328,192.735 334.495,193.068C334.661,193.402 334.645,193.602 334.445,193.668L320.645,200.368C320.511,200.435 320.345,200.468 320.145,200.468C319.545,200.468 318.995,199.868 318.495,198.668C317.995,197.468 317.678,195.835 317.545,193.768C315.345,195.835 313.145,197.452 310.945,198.618C308.745,199.785 306.311,200.368 303.645,200.368C300.911,200.368 298.395,199.685 296.095,198.318C293.795,196.952 291.978,194.935 290.645,192.268C289.311,189.602 288.645,186.402 288.645,182.668C288.645,177.935 289.745,173.785 291.945,170.218C294.145,166.652 297.045,163.935 300.645,162.068C304.245,160.202 308.111,159.268 312.245,159.268C315.845,159.268 319.078,160.135 321.945,161.868C323.478,161.202 324.778,160.335 325.845,159.268C325.911,159.202 326.011,159.168 326.145,159.168C326.278,159.168 326.428,159.218 326.595,159.318C326.761,159.418 326.845,159.535 326.845,159.668L326.845,188.168C326.845,190.168 327.061,191.585 327.495,192.418C327.928,193.252 328.645,193.668 329.645,193.668C330.511,193.668 331.878,193.302 333.745,192.568L333.945,192.568ZM308.745,195.068C311.411,195.068 314.311,194.002 317.445,191.868L317.445,170.268C317.445,167.668 316.728,165.535 315.295,163.868C313.861,162.202 311.978,161.368 309.645,161.368C306.311,161.368 303.695,163.035 301.795,166.368C299.895,169.702 298.945,174.002 298.945,179.268C298.945,184.268 299.795,188.152 301.495,190.918C303.195,193.685 305.611,195.068 308.745,195.068Z" style="fill:rgb(28,20,54);"/>
        <path d="M397.745,159.268C397.811,160.535 397.845,162.135 397.845,164.068C397.845,164.268 397.661,164.368 397.295,164.368C396.928,164.368 396.711,164.268 396.645,164.068C395.111,160.468 393.245,157.818 391.045,156.118C388.845,154.418 386.145,153.568 382.945,153.568L382.245,153.568C380.778,153.568 379.695,153.752 378.995,154.118C378.295,154.485 377.828,155.135 377.595,156.068C377.361,157.002 377.245,158.468 377.245,160.468L377.245,175.068C382.111,175.002 385.695,174.852 387.995,174.618C390.295,174.385 391.645,174.268 392.045,174.268C392.245,174.268 392.411,174.485 392.545,174.918C392.678,175.352 392.745,175.868 392.745,176.468C392.745,177.068 392.678,177.652 392.545,178.218C392.411,178.785 392.245,179.068 392.045,179.068C391.711,179.068 390.395,178.868 388.095,178.468C385.795,178.068 382.178,177.835 377.245,177.768L377.245,190.568C377.245,192.635 377.461,194.168 377.895,195.168C378.328,196.168 379.161,196.868 380.395,197.268C381.628,197.668 383.545,197.868 386.145,197.868C386.345,197.868 386.445,198.068 386.445,198.468C386.445,198.868 386.345,199.068 386.145,199.068C383.545,199.068 381.511,199.035 380.045,198.968L372.345,198.868L365.645,198.968C364.511,199.035 362.911,199.068 360.845,199.068C360.711,199.068 360.645,198.868 360.645,198.468C360.645,198.068 360.711,197.868 360.845,197.868C362.778,197.868 364.178,197.702 365.045,197.368C365.911,197.035 366.511,196.385 366.845,195.418C367.178,194.452 367.345,192.968 367.345,190.968L367.345,160.368C367.345,158.368 367.178,156.902 366.845,155.968C366.511,155.035 365.895,154.385 364.995,154.018C364.095,153.652 362.711,153.468 360.845,153.468C360.711,153.468 360.645,153.268 360.645,152.868C360.645,152.468 360.711,152.268 360.845,152.268L396.645,152.268C397.311,152.268 397.645,152.535 397.645,153.068L397.745,159.268Z" style="fill:rgb(28,20,54);"/>
        <path d="M448.445,192.568C448.645,192.568 448.828,192.735 448.995,193.068C449.161,193.402 449.145,193.602 448.945,193.668L435.145,200.368C435.011,200.435 434.845,200.468 434.645,200.468C434.045,200.468 433.495,199.868 432.995,198.668C432.495,197.468 432.178,195.835 432.045,193.768C429.845,195.835 427.645,197.452 425.445,198.618C423.245,199.785 420.811,200.368 418.145,200.368C415.411,200.368 412.895,199.685 410.595,198.318C408.295,196.952 406.478,194.935 405.145,192.268C403.811,189.602 403.145,186.402 403.145,182.668C403.145,177.935 404.245,173.785 406.445,170.218C408.645,166.652 411.545,163.935 415.145,162.068C418.745,160.202 422.611,159.268 426.745,159.268C430.345,159.268 433.578,160.135 436.445,161.868C437.978,161.202 439.278,160.335 440.345,159.268C440.411,159.202 440.511,159.168 440.645,159.168C440.778,159.168 440.928,159.218 441.095,159.318C441.261,159.418 441.345,159.535 441.345,159.668L441.345,188.168C441.345,190.168 441.561,191.585 441.995,192.418C442.428,193.252 443.145,193.668 444.145,193.668C445.011,193.668 446.378,193.302 448.245,192.568L448.445,192.568ZM423.245,195.068C425.911,195.068 428.811,194.002 431.945,191.868L431.945,170.268C431.945,167.668 431.228,165.535 429.795,163.868C428.361,162.202 426.478,161.368 424.145,161.368C420.811,161.368 418.195,163.035 416.295,166.368C414.395,169.702 413.445,174.002 413.445,179.268C413.445,184.268 414.295,188.152 415.995,190.918C417.695,193.685 420.111,195.068 423.245,195.068Z" style="fill:rgb(28,20,54);"/>
        <path d="M540.245,192.568C540.445,192.568 540.628,192.735 540.795,193.068C540.961,193.402 540.945,193.602 540.745,193.668L526.945,200.368C526.811,200.435 526.645,200.468 526.445,200.468C525.845,200.468 525.295,199.868 524.795,198.668C524.295,197.468 523.978,195.835 523.845,193.768C521.645,195.835 519.445,197.452 517.245,198.618C515.045,199.785 512.611,200.368 509.945,200.368C507.211,200.368 504.695,199.685 502.395,198.318C500.095,196.952 498.278,194.935 496.945,192.268C495.611,189.602 494.945,186.402 494.945,182.668C494.945,177.935 496.045,173.785 498.245,170.218C500.445,166.652 503.345,163.935 506.945,162.068C510.545,160.202 514.411,159.268 518.545,159.268C522.145,159.268 525.378,160.135 528.245,161.868C529.778,161.202 531.078,160.335 532.145,159.268C532.211,159.202 532.311,159.168 532.445,159.168C532.578,159.168 532.728,159.218 532.895,159.318C533.061,159.418 533.145,159.535 533.145,159.668L533.145,188.168C533.145,190.168 533.361,191.585 533.795,192.418C534.228,193.252 534.945,193.668 535.945,193.668C536.811,193.668 538.178,193.302 540.045,192.568L540.245,192.568ZM515.045,195.068C517.711,195.068 520.611,194.002 523.745,191.868L523.745,170.268C523.745,167.668 523.028,165.535 521.595,163.868C520.161,162.202 518.278,161.368 515.945,161.368C512.611,161.368 509.995,163.035 508.095,166.368C506.195,169.702 505.245,174.002 505.245,179.268C505.245,184.268 506.095,188.152 507.795,190.918C509.495,193.685 511.911,195.068 515.045,195.068Z" style="fill:rgb(28,20,54);"/>
        <path d="M587.845,149.568C585.911,149.568 584.411,149.035 583.345,147.968C582.278,146.902 581.745,145.402 581.745,143.468C581.745,141.735 582.295,140.352 583.395,139.318C584.495,138.285 585.978,137.768 587.845,137.768C589.711,137.768 591.145,138.268 592.145,139.268C593.145,140.268 593.645,141.668 593.645,143.468C593.645,145.402 593.145,146.902 592.145,147.968C591.145,149.035 589.711,149.568 587.845,149.568ZM578.245,199.068C578.045,199.068 577.945,198.868 577.945,198.468C577.945,198.068 578.045,197.868 578.245,197.868C580.311,197.868 581.711,197.385 582.445,196.418C583.178,195.452 583.545,193.635 583.545,190.968L583.545,173.068C583.545,170.802 583.311,169.168 582.845,168.168C582.378,167.168 581.611,166.668 580.545,166.668C579.678,166.668 578.445,167.035 576.845,167.768L576.745,167.768C576.478,167.768 576.278,167.585 576.145,167.218C576.011,166.852 576.045,166.635 576.245,166.568L591.345,159.568L591.645,159.468C591.978,159.468 592.311,159.635 592.645,159.968C592.978,160.302 593.145,160.602 593.145,160.868L593.145,163.068C593.011,165.735 592.945,169.002 592.945,172.868L592.945,190.968C592.945,193.635 593.328,195.452 594.095,196.418C594.861,197.385 596.278,197.868 598.345,197.868C598.545,197.868 598.645,198.068 598.645,198.468C598.645,198.868 598.545,199.068 598.345,199.068C596.611,199.068 595.245,199.035 594.245,198.968L588.245,198.868L582.345,198.968C581.345,199.035 579.978,199.068 578.245,199.068Z" style="fill:rgb(28,20,54);"/>
        <text x="447.745px" y="199.068px" style="font-family:'CormorantGaramond-Bold', 'Cormorant Garamond';font-weight:700;font-size:100px;fill:rgb(28,20,54);"><tspan x="447.745px 540.745px " y="199.068px 199.068px ">vt</tspan></text>
    </g>
</svg>
